<?xml version="1.0" encoding="UTF-8"?>
<svg xmlns="http://www.w3.org/2000/svg" xmlns:xlink="http://www.w3.org/1999/xlink" width="300px" height="300px" viewBox="0 0 150 150" version="1.1">
<g id="surface1">
<path style=" stroke:none;fill-rule:evenodd;fill:rgb(30.980392%,30.196078%,40.784314%);fill-opacity:1;" d="M 43.613281 58.285156 L 44.203125 59.023438 C 44.941406 60.402344 45.238281 61.828125 45.089844 63.257812 C 44.941406 64.144531 44.550781 65.027344 44.003906 65.867188 C 43.566406 66.558594 43.019531 67.144531 42.378906 67.589844 C 41.988281 67.835938 41.59375 68.03125 41.25 68.128906 L 40.261719 68.082031 C 40.019531 67.941406 39.867188 67.675781 39.871094 67.394531 C 39.871094 67.144531 39.96875 66.949219 40.117188 66.800781 C 40.261719 66.652344 40.609375 66.558594 41.050781 66.558594 C 41.394531 66.558594 41.742188 66.359375 42.183594 66.011719 C 42.628906 65.667969 42.972656 65.226562 43.316406 64.734375 C 43.761719 63.949219 43.957031 63.109375 43.957031 62.222656 C 43.910156 61.371094 43.652344 60.542969 43.21875 59.808594 L 42.578125 58.972656 L 41.988281 58.382812 C 40.707031 57.398438 38.984375 56.808594 36.769531 56.660156 C 34.949219 56.511719 33.273438 56.660156 31.699219 57.105469 C 26.871094 58.332031 23.917969 60.550781 22.785156 63.652344 C 22.441406 64.683594 22.394531 65.574219 22.6875 66.359375 C 22.886719 66.800781 23.230469 67.292969 23.722656 67.785156 L 23.769531 67.785156 L 23.917969 67.933594 C 24.363281 68.277344 24.558594 68.621094 24.609375 68.96875 C 24.609375 69.410156 24.316406 69.753906 23.769531 69.953125 C 23.425781 70.101562 22.6875 70.347656 21.554688 70.691406 L 20.375 71.035156 C 17.222656 72.019531 14.664062 73.546875 12.742188 75.613281 L 12.300781 76.011719 L 11.855469 76.597656 C 10.378906 78.324219 9.296875 80.191406 8.65625 82.214844 C 8.214844 83.589844 8.015625 84.917969 8.113281 86.25 C 8.164062 87.578125 8.558594 88.761719 9.199219 89.84375 C 9.835938 90.984375 10.730469 91.960938 11.808594 92.699219 C 12.941406 93.4375 14.222656 93.980469 15.648438 94.324219 C 17.273438 94.667969 19.292969 94.621094 21.707031 94.277344 C 24.410156 93.832031 26.675781 93.09375 28.402344 91.960938 L 29.1875 91.46875 L 30.027344 90.878906 C 31.054688 89.972656 32.023438 89.003906 32.929688 87.972656 C 33.964844 86.792969 34.652344 85.609375 35.097656 84.476562 C 35.441406 83.34375 35.539062 82.410156 35.394531 81.621094 C 35.292969 81.128906 35.097656 80.734375 34.753906 80.441406 L 34.652344 80.292969 C 34.503906 80.191406 34.359375 79.949219 34.160156 79.554688 C 34.160156 79.308594 34.207031 79.160156 34.355469 79.011719 C 34.503906 78.863281 34.652344 78.769531 34.898438 78.769531 C 35.144531 78.769531 35.441406 78.914062 35.6875 79.160156 L 35.738281 79.207031 C 36.082031 79.554688 36.324219 80.097656 36.523438 80.734375 C 36.769531 81.574219 36.769531 82.457031 36.621094 83.347656 C 36.128906 86.101562 34.355469 88.761719 31.304688 91.324219 L 30.910156 91.617188 L 30.515625 92.011719 L 29.582031 92.601562 C 27.761719 93.832031 25.644531 94.71875 23.179688 95.261719 C 20.667969 95.800781 18.160156 95.902344 15.550781 95.605469 C 13.136719 95.308594 11.066406 94.71875 9.394531 93.882812 C 7.722656 92.996094 6.339844 91.816406 5.261719 90.289062 L 4.324219 88.863281 C 3.980469 88.316406 3.730469 87.582031 3.488281 86.746094 C 3.042969 85.019531 3.140625 83.246094 3.78125 81.523438 C 4.027344 80.886719 4.519531 79.996094 5.261719 78.914062 C 6.488281 77.289062 7.671875 76.011719 8.804688 75.074219 L 9.296875 74.679688 L 9.839844 74.285156 C 12.742188 72.214844 16.828125 70.589844 22.097656 69.460938 C 22.933594 69.261719 23.378906 69.066406 23.378906 68.917969 C 23.378906 68.820312 23.179688 68.722656 22.785156 68.574219 L 22.691406 68.574219 C 20.175781 67.835938 18.898438 66.558594 18.847656 64.832031 L 18.847656 64.242188 C 18.847656 63.503906 19.09375 62.714844 19.636719 61.976562 C 20.128906 61.140625 20.867188 60.402344 21.851562 59.710938 C 23.96875 58.035156 26.824219 56.808594 30.320312 56.066406 C 36.179688 54.839844 40.460938 55.378906 43.121094 57.792969 Z M 43.613281 58.285156 "/>
<path style=" stroke:none;fill-rule:evenodd;fill:rgb(30.980392%,30.196078%,40.784314%);fill-opacity:1;" d="M 52.378906 56.613281 C 51.835938 56.316406 51.246094 56.117188 50.554688 55.972656 C 49.425781 55.777344 48.273438 55.816406 47.15625 56.066406 C 46.074219 56.316406 44.746094 56.90625 43.167969 57.792969 L 41.988281 58.382812 C 40.53125 59.230469 39.160156 60.21875 37.902344 61.335938 C 36.667969 62.371094 35.488281 63.601562 34.355469 65.027344 C 33.074219 66.457031 31.597656 68.722656 29.972656 71.824219 C 29.128906 73.386719 28.339844 74.980469 27.613281 76.597656 L 20.816406 76.894531 C 17.714844 76.796875 15.003906 76.351562 12.792969 75.613281 L 11.265625 74.972656 L 9.886719 74.285156 C 8.113281 73.25 6.589844 72.019531 5.355469 70.691406 L 4.914062 70.097656 C 4.222656 68.964844 3.929688 67.785156 4.027344 66.605469 C 4.074219 66.0625 4.222656 65.371094 4.570312 64.582031 L 5.261719 63.105469 L 5.355469 62.910156 C 6.390625 61.039062 8.066406 59.269531 10.429688 57.59375 C 12.792969 55.871094 15.550781 54.492188 18.75 53.359375 L 19.683594 53.113281 L 21.0625 52.917969 L 23.230469 52.964844 C 23.476562 52.917969 23.671875 52.867188 23.820312 52.769531 C 23.964844 52.621094 24.019531 52.523438 24.019531 52.375 C 23.96875 51.636719 23.527344 51.242188 22.589844 51.242188 C 21.652344 51.191406 20.519531 51.441406 19.242188 51.882812 C 18.402344 52.128906 17.273438 52.574219 15.941406 53.210938 C 14.023438 53.949219 12.105469 54.984375 10.082031 56.410156 C 7.871094 57.9375 6.292969 59.414062 5.261719 60.894531 C 4.621094 61.828125 4.128906 62.664062 3.878906 63.304688 L 3.191406 65.226562 L 2.894531 66.753906 C 2.550781 68.871094 3.339844 70.738281 5.257812 72.269531 C 6.488281 73.398438 7.667969 74.332031 8.800781 75.074219 L 9.839844 75.714844 L 11.902344 76.550781 C 13.726562 77.289062 15.941406 77.730469 18.601562 77.976562 C 21.210938 78.222656 24.066406 78.175781 27.121094 77.832031 C 26.28125 79.699219 25.542969 81.226562 24.902344 82.359375 C 23.964844 83.984375 22.980469 85.316406 21.949219 86.347656 C 20.570312 85.410156 19.386719 84.773438 18.402344 84.328125 C 17.46875 83.933594 16.582031 83.738281 15.792969 83.738281 C 14.761719 83.738281 13.875 84.035156 13.183594 84.574219 C 12.496094 85.113281 12.152344 85.757812 12.152344 86.542969 C 12.152344 87.378906 12.496094 88.070312 13.183594 88.660156 C 14.019531 89.351562 15.203125 89.695312 16.777344 89.695312 C 18.75 89.695312 20.570312 89.105469 22.195312 87.972656 C 24.3125 89.5 26.429688 90.828125 28.496094 91.910156 L 28.792969 92.160156 L 29.628906 92.601562 C 33.714844 94.867188 37.605469 95.800781 41.347656 95.410156 C 44.941406 95.011719 47.996094 93.488281 50.554688 90.828125 L 52.378906 89.007812 L 52.378906 86.988281 L 50.457031 88.761719 C 47.453125 91.027344 44.152344 92.253906 40.558594 92.503906 C 37.855469 92.699219 34.800781 92.304688 31.402344 91.320312 L 30.027344 90.878906 C 27.910156 90.042969 25.644531 88.808594 23.277344 87.183594 C 24.558594 86.199219 25.988281 84.722656 27.511719 82.703125 C 28.84375 80.933594 30.027344 79.109375 31.011719 77.289062 C 34.355469 76.597656 37.800781 75.316406 41.347656 73.496094 C 44.894531 71.628906 47.945312 69.460938 50.554688 67.046875 L 51.441406 66.261719 L 52.378906 65.324219 L 52.378906 61.78125 C 51.984375 62.617188 51.34375 63.550781 50.457031 64.585938 C 48.882812 66.558594 46.667969 68.527344 43.808594 70.496094 C 39.96875 73.105469 35.980469 74.878906 31.796875 75.910156 C 34.011719 71.675781 36.175781 68.179688 38.246094 65.472656 C 39.746094 63.441406 41.429688 61.542969 43.269531 59.808594 L 43.511719 59.566406 L 44.253906 59.023438 C 46.519531 57.300781 48.582031 56.660156 50.503906 57.199219 C 51.339844 57.449219 51.980469 57.839844 52.375 58.382812 L 52.375 56.613281 Z M 15.792969 84.921875 C 16.976562 84.921875 18.699219 85.660156 21.011719 87.136719 C 19.683594 88.074219 18.257812 88.515625 16.683594 88.515625 C 15.355469 88.515625 14.417969 88.21875 13.777344 87.582031 C 13.480469 87.285156 13.332031 86.941406 13.332031 86.546875 C 13.332031 86.199219 13.480469 85.90625 13.777344 85.660156 C 14.21875 85.167969 14.859375 84.921875 15.792969 84.921875 Z M 15.792969 84.921875 "/>
<path style=" stroke:none;fill-rule:evenodd;fill:rgb(30.980392%,30.196078%,40.784314%);fill-opacity:1;" d="M 53.605469 101.5625 L 2.207031 101.5625 L 2.207031 50.113281 L 53.605469 50.113281 Z M 50.554688 98.460938 L 5.257812 98.460938 L 5.257812 53.164062 L 50.554688 53.164062 Z M 109.488281 51.339844 L 113.820312 51.441406 L 118.054688 51.394531 L 117.957031 52.082031 L 117.957031 52.769531 L 115.988281 52.625 L 112.394531 52.527344 L 111.410156 52.527344 L 111.359375 57.054688 L 111.359375 58.730469 L 111.410156 58.777344 L 117.417969 58.679688 L 117.363281 59.320312 L 117.417969 59.960938 L 112.984375 59.761719 L 111.410156 59.8125 L 111.359375 59.8125 L 111.558594 67.097656 L 111.605469 67.144531 L 112.394531 67.144531 L 118.203125 66.753906 L 118.15625 67.441406 L 118.15625 68.179688 L 109.144531 68.230469 C 109.292969 66.902344 109.339844 65.816406 109.339844 64.933594 L 109.441406 59.714844 C 109.394531 54.789062 109.292969 51.980469 109.195312 51.339844 Z M 106.238281 52.082031 L 106.289062 52.769531 L 104.269531 52.621094 L 100.675781 52.523438 L 99.691406 52.523438 L 99.644531 57.054688 L 99.644531 58.730469 L 99.691406 58.777344 L 105.699219 58.679688 L 105.648438 59.320312 L 105.699219 59.957031 L 101.269531 59.761719 L 99.691406 59.808594 L 99.644531 59.808594 L 99.839844 67.097656 L 99.886719 67.144531 L 100.675781 67.144531 L 106.484375 66.753906 L 106.4375 67.441406 L 106.4375 68.179688 L 97.425781 68.230469 C 97.574219 66.902344 97.625 65.816406 97.625 64.933594 L 97.722656 59.710938 C 97.675781 54.789062 97.574219 51.980469 97.476562 51.339844 L 97.773438 51.339844 L 102.105469 51.441406 L 106.339844 51.390625 Z M 106.238281 48.4375 L 97.378906 48.4375 L 97.378906 49.472656 L 106.238281 49.472656 Z M 107.667969 73.941406 L 107.46875 73.988281 L 107.371094 86.003906 L 107.417969 87.234375 L 107.519531 88.660156 L 110.375 88.761719 L 113.132812 88.613281 C 113.917969 88.464844 114.558594 88.269531 115.003906 88.074219 C 115.347656 87.875 115.738281 87.582031 116.183594 87.234375 L 116.675781 86.792969 C 118.105469 85.363281 118.792969 83.441406 118.746094 80.933594 C 118.695312 78.027344 117.855469 76.011719 116.332031 74.878906 C 115.691406 74.433594 115.050781 74.089844 114.460938 73.941406 L 111.507812 73.699219 Z M 107.074219 72.957031 L 112.394531 72.859375 L 116.234375 73.203125 C 117.121094 73.449219 117.957031 73.941406 118.746094 74.679688 C 120.371094 76.207031 121.207031 78.222656 121.257812 80.636719 C 121.257812 82.066406 120.960938 83.441406 120.324219 84.675781 C 119.832031 85.617188 119.199219 86.480469 118.449219 87.234375 L 117.910156 87.726562 C 116.972656 88.464844 115.988281 89.007812 114.910156 89.253906 C 113.722656 89.550781 112.050781 89.699219 109.933594 89.648438 L 105.601562 89.699219 L 105.207031 89.699219 C 105.257812 89.550781 105.308594 88.761719 105.355469 87.433594 L 105.503906 80.539062 C 105.453125 78.175781 105.402344 76.550781 105.355469 75.617188 L 105.207031 72.859375 Z M 123.917969 72.761719 L 128.199219 72.910156 L 132.433594 72.859375 L 132.332031 73.546875 L 132.332031 74.1875 L 130.414062 74.089844 L 126.769531 73.992188 L 125.785156 73.992188 L 125.734375 78.519531 L 125.734375 80.144531 L 125.785156 80.195312 L 131.792969 80.097656 L 131.742188 80.734375 L 131.792969 81.425781 L 127.359375 81.230469 L 125.785156 81.230469 L 125.738281 81.277344 L 125.933594 88.515625 L 126.035156 88.566406 L 126.820312 88.613281 L 132.582031 88.21875 L 132.53125 88.859375 L 132.53125 89.597656 L 123.519531 89.695312 L 123.71875 87.230469 L 123.71875 86.394531 L 123.816406 81.128906 C 123.769531 76.253906 123.667969 73.449219 123.570312 72.757812 L 123.917969 72.757812 Z M 141.195312 72.859375 C 143.066406 72.808594 144.445312 73.152344 145.332031 73.988281 C 146.070312 74.628906 146.417969 75.566406 146.417969 76.699219 C 146.417969 77.832031 145.925781 78.765625 144.988281 79.601562 C 144.050781 80.441406 142.722656 80.980469 141.050781 81.324219 L 141.097656 81.375 L 142.871094 83.640625 L 147.152344 89.054688 L 147.792969 89.792969 L 145.132812 89.792969 L 140.113281 83.246094 L 138.585938 81.523438 L 137.597656 81.523438 C 137.550781 82.160156 137.550781 83.148438 137.597656 84.527344 L 137.847656 89.695312 L 136.519531 89.597656 L 135.386719 89.695312 L 135.480469 87.136719 C 135.535156 85.707031 135.582031 83.492188 135.628906 80.535156 L 135.535156 75.417969 L 135.386719 72.855469 L 137.160156 72.957031 Z M 137.601562 73.988281 L 137.601562 80.589844 L 138.933594 80.636719 L 141.050781 80.488281 C 141.511719 80.332031 141.953125 80.136719 142.378906 79.898438 C 142.902344 79.621094 143.332031 79.191406 143.609375 78.667969 C 143.953125 78.074219 144.152344 77.4375 144.101562 76.796875 C 143.957031 74.730469 142.625 73.695312 140.113281 73.695312 C 138.832031 73.695312 137.996094 73.792969 137.652344 73.941406 Z M 63.601562 52.523438 L 62.667969 52.523438 L 62.617188 57.054688 L 62.617188 58.730469 L 62.667969 58.777344 L 68.675781 58.679688 L 68.625 59.320312 L 68.675781 59.957031 L 64.242188 59.761719 L 62.667969 59.808594 L 62.621094 59.808594 L 62.816406 67.097656 L 62.863281 67.144531 L 63.652344 67.144531 L 69.460938 66.753906 L 69.363281 67.441406 L 69.410156 68.179688 L 60.402344 68.230469 C 60.550781 66.902344 60.597656 65.816406 60.597656 64.933594 L 60.699219 59.710938 C 60.648438 54.789062 60.550781 51.980469 60.449219 51.339844 L 60.746094 51.339844 L 65.082031 51.441406 L 69.316406 51.390625 L 69.214844 52.082031 L 69.214844 52.769531 L 67.246094 52.621094 Z M 61.632812 72.859375 L 62.863281 72.761719 C 62.566406 75.371094 62.46875 77.878906 62.566406 80.195312 C 62.566406 83.496094 62.617188 85.855469 62.667969 87.234375 L 62.714844 88.121094 L 62.765625 88.566406 L 63.800781 88.664062 L 67.144531 88.566406 L 69.707031 88.367188 L 69.660156 89.058594 L 69.660156 89.699219 L 67.050781 89.648438 C 66.113281 89.597656 64.636719 89.597656 62.519531 89.648438 L 60.402344 89.699219 L 60.550781 86.398438 L 60.644531 81.324219 C 60.644531 79.207031 60.550781 76.355469 60.402344 72.761719 Z M 71.722656 65.027344 C 72.859375 66.753906 74.238281 67.640625 75.910156 67.640625 C 77.042969 67.640625 77.976562 67.246094 78.714844 66.457031 C 79.40625 65.71875 79.75 64.832031 79.75 63.800781 C 79.75 62.960938 79.457031 62.273438 78.914062 61.730469 C 78.371094 61.191406 77.484375 60.699219 76.253906 60.253906 C 74.136719 59.515625 72.757812 58.628906 72.167969 57.597656 C 71.824219 56.957031 71.628906 56.316406 71.628906 55.574219 C 71.628906 54.199219 72.121094 53.066406 73.105469 52.230469 C 74.089844 51.339844 75.371094 50.898438 76.996094 50.898438 C 78.714844 50.949219 79.996094 51.339844 80.832031 52.179688 L 80.144531 54.050781 C 79.503906 52.523438 78.421875 51.785156 76.796875 51.832031 C 75.761719 51.832031 74.925781 52.082031 74.332031 52.621094 C 73.746094 53.164062 73.449219 53.902344 73.449219 54.839844 C 73.496094 56.167969 74.136719 57.152344 75.371094 57.742188 L 77.636719 58.628906 C 79.011719 59.074219 79.996094 59.660156 80.636719 60.351562 C 81.277344 61.042969 81.574219 61.925781 81.574219 62.964844 C 81.574219 64.488281 80.980469 65.816406 79.800781 66.851562 C 78.667969 67.886719 77.238281 68.378906 75.515625 68.378906 C 73.894531 68.378906 72.511719 67.886719 71.28125 66.949219 Z M 92.308594 52.574219 L 89.988281 52.523438 L 89.941406 52.523438 L 89.792969 58.679688 L 89.746094 62.074219 L 89.941406 68.230469 L 88.664062 68.132812 L 87.53125 68.230469 C 87.675781 66.605469 87.777344 64.539062 87.777344 62.125 L 87.726562 55.28125 L 87.628906 52.527344 L 82.261719 52.769531 L 82.3125 52.082031 L 82.261719 51.394531 C 82.410156 51.441406 84.480469 51.441406 88.464844 51.488281 L 89.207031 51.488281 L 95.210938 51.394531 L 95.113281 52.03125 L 95.210938 52.769531 Z M 78.964844 72.269531 L 80.195312 75.269531 L 83.246094 82.164062 L 85.316406 86.839844 L 86.644531 89.699219 L 85.363281 89.597656 L 84.035156 89.699219 L 82.261719 85.265625 L 81.277344 82.902344 L 81.230469 82.855469 L 74.878906 82.855469 L 74.828125 82.902344 L 73.894531 85.167969 L 73.105469 87.234375 C 72.710938 88.269531 72.414062 89.105469 72.269531 89.746094 L 71.429688 89.648438 L 70.542969 89.699219 L 71.578125 87.332031 L 78.371094 72.269531 Z M 89.894531 72.761719 L 89.699219 77.980469 L 89.699219 81.527344 C 89.648438 83.644531 89.792969 85.019531 90.089844 85.660156 C 90.335938 86.300781 90.683594 86.792969 91.074219 87.234375 C 92.011719 88.367188 93.390625 88.957031 95.113281 88.910156 C 96.34375 88.863281 97.332031 88.664062 98.113281 88.21875 C 98.558594 87.972656 99.003906 87.675781 99.347656 87.234375 C 99.59375 86.890625 99.839844 86.542969 100.035156 86.152344 C 100.382812 85.511719 100.578125 84.824219 100.726562 84.082031 C 100.824219 83.394531 100.871094 82.164062 100.871094 80.390625 L 100.871094 78.128906 C 100.824219 76.796875 100.777344 75.027344 100.628906 72.761719 L 101.464844 72.90625 L 102.351562 72.761719 C 102.300781 73.253906 102.253906 74.925781 102.203125 77.730469 L 102.15625 80.292969 C 102.105469 81.917969 102.058594 83.097656 102.007812 83.839844 C 101.957031 84.425781 101.808594 85.066406 101.613281 85.707031 C 101.464844 86.25 101.171875 86.742188 100.824219 87.234375 L 100.183594 87.972656 C 98.957031 89.300781 97.183594 89.988281 94.820312 89.988281 C 93.6875 89.988281 92.703125 89.84375 91.769531 89.550781 C 90.832031 89.253906 90.042969 88.859375 89.503906 88.316406 C 89.136719 88.003906 88.824219 87.640625 88.566406 87.234375 L 88.175781 86.398438 C 87.925781 85.660156 87.777344 84.628906 87.777344 83.34375 L 87.777344 79.753906 L 87.730469 77.488281 C 87.730469 76.699219 87.632812 75.121094 87.484375 72.761719 L 88.714844 72.90625 Z M 90.777344 93.683594 L 91.566406 100.628906 L 91.074219 100.578125 L 90.582031 100.628906 L 90.535156 99.246094 L 90.140625 95.457031 L 88.515625 98.363281 L 87.480469 100.527344 L 87.433594 100.527344 L 84.824219 95.554688 L 84.527344 98.214844 L 84.332031 100.628906 L 83.933594 100.578125 L 83.640625 100.628906 L 84.628906 93.683594 L 84.773438 93.683594 L 87.628906 99.050781 L 90.632812 93.683594 Z M 99.394531 93.785156 C 100.921875 93.734375 101.660156 94.277344 101.660156 95.410156 C 101.660156 96.144531 101.363281 96.691406 100.777344 97.035156 C 100.285156 97.328125 99.644531 97.476562 98.804688 97.476562 L 98.113281 97.476562 L 98.214844 100.628906 L 97.722656 100.578125 L 97.230469 100.628906 L 97.328125 97.082031 L 97.230469 93.785156 Z M 80.832031 81.917969 L 79.308594 78.277344 C 78.519531 76.453125 78.074219 75.566406 78.027344 75.617188 L 77.488281 76.796875 L 75.222656 81.871094 L 75.269531 81.917969 Z M 76.894531 95.015625 C 76.453125 94.277344 75.714844 93.933594 74.730469 93.933594 C 73.792969 93.933594 73.054688 94.277344 72.5625 95.015625 C 72.167969 95.554688 71.972656 96.246094 71.972656 97.179688 C 71.972656 98.066406 72.167969 98.804688 72.5625 99.347656 C 73.054688 100.082031 73.792969 100.429688 74.730469 100.429688 C 75.714844 100.429688 76.453125 100.085938 76.894531 99.347656 C 77.289062 98.804688 77.488281 98.066406 77.488281 97.179688 C 77.488281 96.292969 77.289062 95.554688 76.894531 95.015625 Z M 77.488281 99.789062 C 76.847656 100.429688 75.910156 100.722656 74.730469 100.722656 C 73.597656 100.722656 72.660156 100.429688 71.972656 99.789062 C 71.332031 99.152344 70.988281 98.3125 70.988281 97.179688 C 70.988281 96.046875 71.332031 95.210938 71.972656 94.570312 C 72.660156 93.929688 73.597656 93.636719 74.730469 93.636719 C 75.910156 93.636719 76.847656 93.929688 77.488281 94.570312 C 78.175781 95.207031 78.519531 96.046875 78.519531 97.179688 C 78.519531 98.3125 78.175781 99.152344 77.488281 99.789062 Z M 98.113281 97.082031 L 98.660156 97.128906 C 100.035156 97.128906 100.722656 96.589844 100.722656 95.507812 C 100.722656 94.570312 100.183594 94.078125 99.050781 94.078125 L 98.164062 94.175781 Z M 66.308594 94.027344 C 66.210938 94.324219 66.160156 94.570312 66.113281 94.816406 L 66.011719 94.816406 C 65.519531 94.277344 64.882812 93.980469 64.09375 93.980469 C 63.257812 93.980469 62.566406 94.324219 62.027344 94.964844 C 61.582031 95.507812 61.386719 96.292969 61.386719 97.230469 C 61.386719 98.167969 61.632812 98.953125 62.125 99.496094 C 62.566406 100.035156 63.207031 100.332031 64.042969 100.382812 C 64.832031 100.382812 65.574219 100.085938 66.261719 99.496094 L 66.308594 99.542969 L 66.160156 100.136719 C 65.574219 100.527344 64.832031 100.722656 63.898438 100.722656 C 62.816406 100.722656 61.976562 100.429688 61.339844 99.792969 C 60.699219 99.152344 60.351562 98.316406 60.351562 97.230469 C 60.351562 96.097656 60.746094 95.160156 61.484375 94.523438 C 62.125 93.933594 63.058594 93.636719 64.242188 93.636719 C 65.078125 93.636719 65.769531 93.785156 66.308594 94.027344 Z M 138.191406 94.027344 L 138.191406 94.324219 L 135.636719 94.277344 L 135.535156 96.246094 L 135.535156 96.738281 L 136.914062 96.738281 L 137.996094 96.691406 L 137.949219 97.035156 L 137.996094 97.277344 L 136.222656 97.179688 L 135.535156 97.230469 L 135.535156 97.378906 L 135.582031 100.136719 L 136.816406 100.082031 L 138.242188 99.988281 L 138.242188 100.628906 L 138.191406 100.628906 L 138.191406 100.578125 L 134.597656 100.628906 L 134.699219 98.707031 L 134.699219 97.917969 L 134.746094 96.832031 L 134.648438 93.78125 L 138.191406 93.78125 Z M 146.316406 94.078125 L 146.019531 94.917969 L 145.925781 94.917969 C 145.824219 94.667969 145.675781 94.425781 145.429688 94.277344 C 145.183594 94.078125 144.9375 93.980469 144.691406 94.03125 C 144.300781 93.980469 144.003906 94.128906 143.804688 94.375 C 143.558594 94.621094 143.410156 94.867188 143.410156 95.210938 C 143.410156 95.605469 143.558594 95.902344 143.855469 96.144531 C 144.050781 96.292969 144.445312 96.488281 145.035156 96.738281 C 145.578125 96.980469 145.925781 97.179688 146.121094 97.378906 C 146.417969 97.675781 146.5625 98.066406 146.5625 98.511719 C 146.5625 99.152344 146.316406 99.644531 145.871094 100.082031 C 145.429688 100.527344 144.839844 100.722656 144.152344 100.722656 C 143.511719 100.722656 142.917969 100.527344 142.476562 100.136719 L 142.675781 99.246094 L 142.769531 99.246094 C 142.917969 99.589844 143.113281 99.839844 143.410156 100.035156 C 143.707031 100.183594 144.003906 100.28125 144.347656 100.28125 C 144.789062 100.28125 145.136719 100.136719 145.378906 99.886719 C 145.628906 99.644531 145.777344 99.296875 145.777344 98.902344 C 145.777344 98.511719 145.675781 98.214844 145.429688 98.015625 C 145.230469 97.816406 144.839844 97.621094 144.300781 97.425781 C 143.707031 97.179688 143.265625 96.886719 143.019531 96.589844 C 142.757812 96.285156 142.617188 95.902344 142.621094 95.503906 C 142.621094 94.914062 142.871094 94.421875 143.3125 94.074219 C 143.660156 93.78125 144.199219 93.636719 144.839844 93.636719 C 145.363281 93.628906 145.878906 93.785156 146.316406 94.078125 Z M 122.191406 93.785156 L 121.996094 100.722656 L 121.847656 100.722656 L 120.519531 99.246094 L 116.824219 95.261719 L 116.777344 95.308594 L 116.824219 99.988281 L 116.871094 100.628906 L 116.53125 100.578125 L 116.136719 100.628906 L 116.234375 99.394531 L 116.332031 97.082031 L 116.332031 93.636719 L 116.480469 93.636719 L 121.503906 98.953125 L 121.453125 93.785156 Z M 128.9375 93.785156 L 128.839844 96.835938 C 128.839844 97.96875 128.839844 98.804688 128.886719 99.445312 L 128.933594 100.628906 L 128.441406 100.578125 L 127.949219 100.628906 L 128 99.445312 L 127.949219 93.785156 Z M 108.40625 93.683594 L 108.605469 93.683594 L 111.558594 100.628906 L 111.066406 100.578125 L 110.574219 100.628906 L 109.488281 97.917969 L 106.929688 97.917969 L 105.941406 100.628906 L 105.597656 100.578125 L 105.253906 100.628906 L 108.308594 93.882812 L 108.308594 93.785156 Z M 108.257812 94.964844 L 107.128906 97.527344 L 109.339844 97.527344 L 108.605469 95.851562 Z M 108.257812 94.964844 "/>
</g>
</svg>
